<svg xmlns="http://www.w3.org/2000/svg" viewBox="0 0 591.75 570.19"><defs><style>
  .cls-1{isolation:isolate;}.cls-2{fill:#e3f7f5;mix-blend-mode:multiply;}.cls-3{fill:#a6916a;}.cls-4{fill:#faf2db;}.cls-5{fill:#82665c;}.cls-6,.cls-7{fill:#fff;}.cls-7{opacity:0.5;mix-blend-mode:overlay;}
</style></defs><title>vanilla</title><g class="cls-1"><g id="Layer_2" data-name="Layer 2"><g id="text"><g id="_9" data-name="9"><path class="cls-2" d="M64,32.6S-4.37,79.27.22,288.22,126.56,535.7,200.07,533.67s227.41-32.46,234.3-245.46S367.86,33,367.86,33,228.24-41,64,32.6Z"/><path class="cls-3" d="M287.3,570.19S268,519.47,268,521.5,562.84,357.19,562.84,357.19l9.63,24.34Z"/><path class="cls-4" d="M51.62,218.14s-12.4,70.46,0,124.24S102.35,481.62,199.3,484s163.47-25.68,183.76-141.61,9-124.24,9-124.24Z"/><path class="cls-5" d="M322,505.27l-23.12-64.91S586,314.59,586,316.62,591.75,347,591.75,347Z"/><path class="cls-6" d="M148.57,260.87c-12.4-3.75-29.59.55-37.67-13-8.19-13.76-1-22.5,10.6-27.66,13.65-6,11.68-6.82,12.41-23.28.59-13.21,5.12-22.41,18.12-26.27,12.32-3.67,15.42,1.71,22.47-10.4,6.31-10.84,5.91-17.74,18-21.88,19-6.49,34.44,9.75,54.3-2,10.57-6.26,26.86-13.56,39.12-7.24,11,5.65,6.52,15.48,8.15,25.58C296.14,167.43,303,173,312,180.43c10.46,8.67,9.62,13.59,9.61,27,0,11.07,1.15,10,6.56,18.49,4.59,7.19,8.12,15.47,4.23,24.38-3.54,8.1-14.34,15.3-21,18.93s-6,2.69-11.85,8.34c-5.45,5.23-4.57,7.06-13.33,7.14-21.09.18-34.69-18.77-53.46-23.61-17.77-4.58-28.69,4-44.95,6.64-8.8,1.44-38.18-11.45-41.52-5.67"/><ellipse class="cls-2" cx="214.52" cy="47.12" rx="145.99" ry="26.23"/><path class="cls-7" d="M388.42,54.3C385,56,381.55,57.6,378,59.11q-6.68,2.82-13.49,5.14a231,231,0,0,1-75.59,24.27c-20.26,2.83-41.19,3.92-61.56,1.23v442c78.73-9.13,200.92-54.25,207-243.51C438.84,150.14,409.57,83.86,388.42,54.3Z"/></g></g></g></g></svg>
